# AST/ASF file generated using VICON BodyLanguage
# -----------------------------------------------
:version 1.10
:name VICON
:units
  mass 1.0
  length 0.45
  angle deg
:documentation
   .ast/.asf automatically generated from VICON data using
   VICON BodyBuilder and BodyLanguage model FoxedUp or BRILLIANT.MOD
:root
   order TX TY TZ RX RY RZ
   axis XYZ
   position 0 0 0  
   orientation 0 0 0 
:bonedata
  begin
     id 1 
     name lhipjoint
     direction 0.621036 -0.695554 0.361275 
     length 2.46325 
     axis 0 0 0  XYZ
  end
  begin
     id 2 
     name lfemur
     direction 0.34202 -0.939693 0  
     length 6.54784  
     axis 0 0 20  XYZ
    dof rx ry rz
    limits (-160.0 20.0)
           (-70.0 70.0)
           (-60.0 70.0)
  end
  begin
     id 3 
     name ltibia
     direction 0.34202 -0.939693 0   
     length 7.84737   
     axis 0 0 20   XYZ
    dof rx
    limits (-10.0 170.0)
  end
  begin
     id 4 
     name lfoot
     direction 0.0790693 -0.217241 0.97291   
     length 2.59747   
     axis -90 7.62852e-016 20   XYZ
    dof rx rz
    limits (-45.0 90.0)
           (-70.0 20.0)
  end
  begin
     id 5 
     name ltoes
     direction 1.53572e-011 -4.21898e-011 1   
     length 1.29919   
     axis -90 7.62852e-016 20   XYZ
    dof rx
    limits (-90.0 20.0)
  end
  begin
     id 6 
     name rhipjoint
     direction -0.602353 -0.708375 0.367935   
     length 2.41867  
     axis 0 0 0  XYZ 
  end
  begin
     id 7 
     name rfemur
     direction -0.34202 -0.939693 0   
     length 6.92065   
     axis 0 0 -20   XYZ
    dof rx ry rz
    limits (-160.0 20.0)
           (-70.0 70.0)
           (-70.0 60.0)
  end
  begin
     id 8 
     name rtibia
     direction -0.34202 -0.939693 0   
     length 7.88883   
     axis 0 0 -20   XYZ
    dof rx
    limits (-10.0 170.0)
 end
 begin
     id 9 
     name rfoot
     direction -0.0768692 -0.211196 0.974416   
     length 2.43714  
     axis -90 -7.62852e-016 -20   XYZ
    dof rx rz
    limits (-45.0 90.0)
           (-20.0 70.0)
  end
  begin
     id 10 
     name rtoes
     direction -1.53575e-011 -4.21933e-011 1   
     length 1.22113   
     axis -90 -7.62852e-016 -20   XYZ
    dof rx
    limits (-90.0 20.0)
  end
  begin
     id 11 
     name lowerback
     direction 0.0197937 0.98943 -0.143655   
     length 2.16931   
     axis 0 0 0   XYZ
    dof rx ry rz
    limits (-20.0 45.0)
           (-30.0 30.0)
           (-30.0 30.0)
  end
  begin
     id 12 
     name upperback
     direction -0.00183968 0.999975 0.00684288   
     length 2.17221   
     axis 0 0 0   XYZ
    dof rx ry rz
    limits (-20.0 45.0)
           (-30.0 30.0)
           (-30.0 30.0)
  end
  begin
     id 13 
     name thorax
     direction -0.00950244 0.997208 0.0740685   
     length 2.22549   
     axis 0 0 0   XYZ
    dof rx ry rz
    limits (-20.0 45.0)
           (-30.0 30.0)
           (-30.0 30.0)
  end
  begin
     id 14 
     name lowerneck
     direction 0.0218238 0.996215 0.0841425   
     length 1.77269   
     axis 0 0 0   XYZ
    dof rx ry rz
    limits (-20.0 45.0)
           (-30.0 30.0)
           (-30.0 30.0)
  end
  begin
     id 15 
     name upperneck
     direction -0.00430652 0.994214 -0.107332   
     length 1.76534   
     axis 0 0 0   XYZ
    dof rx ry rz
    limits (-20.0 45.0)
           (-30.0 30.0)
           (-30.0 30.0)
  end
  begin
     id 16
     name head
     direction -0.00328946 0.998959 -0.0454998  
     length 1.82634  
     axis 0 0 0   XYZ
    dof rx ry rz
    limits (-20.0 45.0)
           (-30.0 30.0)
           (-30.0 30.0)
  end
  begin
     id 17 
     name lclavicle
     direction 0.970962 0.239191 0.00450212  
     length 3.84872  
     axis 0 0 0   XYZ
    dof ry rz
    limits (-20.0 10.0)
           (0.0 20.0)
  end
  begin
     id 18 
     name lhumerus
     direction 1 -4.48966e-011 5.74696e-028   
     length 5.22771   
     axis 180 -30 -90   XYZ
    dof rx ry rz
    limits (-60.0 90.0)
           (-90.0 90.0)
           (-90.0 90.0)
  end
  begin
     id 19
     name lradius
     direction 1 -4.4896e-011 4.25109e-027   
     length 3.45251   
     axis 180 -30 -90   XYZ
    dof rx
    limits (-10.0 170.0)
  end
  begin
     id 20
     name lwrist
     direction 1 -4.48971e-011 1.15382e-027   
     length 1.72626   
     axis -5.52449e-016 90 90   XYZ
    dof ry
    limits (-180.0 0.0)
 end
  begin
     id 21 
     name lhand
     direction 1 -4.49034e-011 2.30765e-027   
     length 0.552119   
     axis -1.47248e-015 90 90   XYZ
    dof rx rz
    limits (-90.0 90.0)
           (-45.0 45.0)
  end
  begin
     id 22 
     name lfingers
     direction 1 -4.48951e-011 4.61529e-027   
     length 0.445133   
     axis -2.94495e-015 90 90   XYZ
    dof rx
    limits (0.0 90.0)
  end
  begin
     id 23
     name lthumb
     direction 0.707107 -6.34991e-011 0.707107   
     length 0.639124   
     axis -90 45 2.85299e-015   XYZ
    dof rx rz
    limits (-45.0 45.0)
           (-45.0 45.0)
  end
  begin
     id 24 
     name rclavicle
     direction -0.97424 0.222511 -0.0366699   
     length 3.73439  
     axis 0 0 0   XYZ 
    dof ry rz
    limits (-10.0 20.0)
           (-20.0 0.0)
  end
  begin
     id 25 
     name rhumerus
     direction -1 -4.48956e-011 -4.97258e-028  
     length 5.2398   
     axis 180 30 90   XYZ
    dof rx ry rz
    limits (-90.0 60.0)
           (-90.0 90.0)
           (-90.0 90.0)
  end
  begin
     id 26 
     name rradius
     direction -1 -4.4897e-011 -1.72611e-027   
     length 3.48042   
     axis 180 30 90   XYZ
    dof rx
    limits (-10.0 170.0)
  end
  begin
     id 27 
     name rwrist
     direction -1 -4.48976e-011 1.15382e-027   
     length 1.74021   
     axis -5.52449e-016 -90 -90   XYZ
    dof ry
    limits (-180.0 0.0)
  end
  begin
     id 28
     name rhand
     direction -1 -4.48963e-011 2.30765e-027   
     length 0.618713   
     axis -1.47248e-015 -90 -90   XYZ
    dof rx rz
    limits (-90.0 90.0)
           (-45.0 45.0)
  end
  begin
     id 29
     name rfingers
     direction -1 -4.4888e-011 4.61529e-027   
     length 0.498823   
     axis -2.94495e-015 -90 -90   XYZ
    dof rx
    limits (0.0 90.0)
  end
  begin
     id 30
     name rthumb
     direction -0.707107 -6.34968e-011 0.707107   
     length 0.716213   
     axis -90 -45 -2.85299e-015   XYZ
    dof rx rz
    limits (-45.0 45.0)
           (-45.0 45.0)
  end
:hierarchy
  begin
    root lhipjoint rhipjoint lowerback
    lhipjoint lfemur
    lfemur ltibia
    ltibia lfoot
    lfoot ltoes
    rhipjoint rfemur
    rfemur rtibia
    rtibia rfoot
    rfoot rtoes
    lowerback upperback
    upperback thorax
    thorax lowerneck lclavicle rclavicle
    lowerneck upperneck
    upperneck head
    lclavicle lhumerus
    lhumerus lradius
    lradius lwrist
    lwrist lhand lthumb
    lhand lfingers
    rclavicle rhumerus
    rhumerus rradius
    rradius rwrist
    rwrist rhand rthumb
    rhand rfingers
  end

#!OML:ASF G:\JayActor3\Patient Classification 1\Patient 1\Session 5\male.ASF
:FULLY-SPECIFIED
:DEGREES
199
root -29.2415 16.2182 -6.59431 226.104 -87.2528 -202.959
lowerback 32.3991 0.264024 -0.0208255
upperback 5.53184 -0.373753 -0.84463
thorax -10.5924 -0.416421 -0.700667
lowerneck 4.55844 0.952339 2.07167
upperneck -19.6679 1.03954 -0.818896
head -6.71407 0.240584 -0.663032
rclavicle 2.83268e-015 3.45388e-015
rhumerus -27.7129 6.06663 -90.5393
rradius 40.0968
rwrist -6.74069
rhand -20.6082 -7.42734
rfingers 7.12502
rthumb 5.75262 -37.3292
lclavicle 2.83268e-015 3.45388e-015
lhumerus -31.6278 -1.23372 85.7006
lradius 38.3672
lwrist 26.4757
lhand -19.9462 9.68144
lfingers 7.12502
lthumb 6.3918 39.565
rfemur -51.2479 1.73684 25.0481
rtibia 58.4398
rfoot -28.5815 -14.6165
rtoes 3.72332
lfemur -61.4965 7.37093 -22.791
ltibia 25.5012
lfoot 19.9873 2.22457
ltoes -4.76468
200
root -29.1507 16.2043 -6.63187 230.505 -87.5195 -207.632
lowerback 32.5933 0.166583 0.109991
upperback 5.606 -0.458707 -0.819991
thorax -10.5892 -0.461986 -0.711667
lowerneck 4.59657 0.911192 2.11295
upperneck -19.6483 1.0011 -0.758194
head -6.71541 0.21495 -0.647933
rclavicle 6.01324e-015 -1.23246e-014
rhumerus -27.6157 5.94655 -90.4794
rradius 40.1691
rwrist -6.80984
rhand -20.647 -7.46735
rfingers 7.12502
rthumb 5.71518 -37.3703
lclavicle 6.01324e-015 -1.23246e-014
lhumerus -31.593 -1.53749 85.7884
lradius 38.1482
lwrist 26.2911
lhand -19.8222 9.75938
lfingers 7.12502
lthumb 6.51149 39.6393
rfemur -51.4429 1.47938 25.244
rtibia 58.6526
rfoot -28.4599 -14.6935
rtoes 3.9007
lfemur -62.3207 7.45121 -22.7558
ltibia 27.4993
lfoot 19.5018 2.15421
ltoes -4.40932
201
root -29.0619 16.1906 -6.66821 236.078 -87.7548 -213.456
lowerback 32.7432 0.0742104 0.226759
upperback 5.67726 -0.540178 -0.795806
thorax -10.5711 -0.505017 -0.716933
lowerneck 4.62384 0.868242 2.146
upperneck -19.6016 0.96041 -0.69364
head -6.70623 0.189152 -0.629929
rclavicle 3.45388e-015 3.03644e-014
rhumerus -27.5321 5.8261 -90.4114
rradius 40.2127
rwrist -6.85602
rhand -20.7089 -7.49044
rfingers 7.12502
rthumb 5.6554 -37.395
lclavicle 3.45388e-015 3.03644e-014
lhumerus -31.5505 -1.82686 85.8748
lradius 37.9208
lwrist 26.0551
lhand -19.6856 9.83787
lfingers 7.12502
lthumb 6.64333 39.7137
rfemur -51.6677 1.19168 25.4348
rtibia 58.8767
rfoot -28.4436 -14.7112
rtoes 4.3511
lfemur -63.257 7.55377 -22.7814
ltibia 29.9319
lfoot 18.6302 2.12696
ltoes -3.97894
202
root -28.9747 16.1769 -6.70281 242.707 -87.9489 -220.313
lowerback 32.8544 -0.0132146 0.331469
upperback 5.74109 -0.617668 -0.771739
thorax -10.5456 -0.545291 -0.717469
lowerneck 4.6461 0.826102 2.17631
upperneck -19.5333 0.920317 -0.633053
head -6.68918 0.164755 -0.612723
rclavicle 1.35919e-014 3.14328e-015
rhumerus -27.4593 5.7168 -90.339
rradius 40.2205
rwrist -6.87588
rhand -20.7564 -7.50096
rfingers 7.12502
rthumb 5.60951 -37.4067
lclavicle 1.35919e-014 3.14328e-015
lhumerus -31.515 -2.08531 85.9561
lradius 37.7006
lwrist 25.7969
lhand -19.5292 9.924
lfingers 7.12502
lthumb 6.7943 39.795
rfemur -51.9209 0.884824 25.623
rtibia 59.1091
rfoot -28.4862 -14.6756
rtoes 4.98885
lfemur -64.2753 7.69358 -22.876
ltibia 32.719
lfoot 17.4645 2.06548
ltoes -3.55374
203
root -28.8894 16.163 -6.73548 250.002 -88.0797 -227.808
lowerback 32.9239 -0.0870113 0.40494
upperback 5.79672 -0.687021 -0.748387
thorax -10.5125 -0.580409 -0.705328
lowerneck 4.66365 0.789143 2.198
upperneck -19.452 0.884937 -0.581659
head -6.66704 0.144385 -0.597332
rclavicle -2.66868e-014 -2.49164e-014
rhumerus -27.3919 5.62143 -90.2587
rradius 40.1915
rwrist -6.87702
rhand -20.7747 -7.51169
rfingers 7.12502
rthumb 5.59188 -37.4179
lclavicle -2.66868e-014 -2.49164e-014
lhumerus -31.4789 -2.30353 86.0332
lradius 37.4882
lwrist 25.546
lhand -19.36 10.0195
lfingers 7.12502
lthumb 6.9576 39.8851
rfemur -52.2029 0.583931 25.7911
rtibia 59.3448
rfoot -28.512 -14.6056
rtoes 5.62312
lfemur -65.3443 7.87754 -23.0444
ltibia 35.763
lfoot 16.1073 1.8695
ltoes -3.32146
204
root -28.8059 16.1492 -6.76612 257.234 -88.146 -235.211
lowerback 32.9634 -0.144771 0.44333
upperback 5.84208 -0.746787 -0.725469
thorax -10.4784 -0.609706 -0.678691
lowerneck 4.67946 0.7553 2.21477
upperneck -19.3694 0.851465 -0.53951
head -6.64408 0.126076 -0.584226
rclavicle -1.6013e-014 -7.1578e-015
rhumerus -27.3316 5.54788 -90.1727
rradius 40.1284
rwrist -6.86305
rhand -20.7741 -7.52158
rfingers 7.12502
rthumb 5.59248 -37.4278
lclavicle -1.6013e-014 -7.1578e-015
lhumerus -31.4466 -2.48077 86.1069
lradius 37.2866
lwrist 25.3289
lhand -19.1892 10.1307
lfingers 7.12502
lthumb 7.12251 39.9908
rfemur -52.5041 0.305244 25.9333
rtibia 59.5754
rfoot -28.446 -14.5391
rtoes 6.02999
lfemur -66.4252 8.09683 -23.2653
ltibia 38.9588
lfoot 14.6934 1.42183
ltoes -3.58385
205
root -28.724 16.1361 -6.7948 263.76 -88.151 -241.879
lowerback 32.9759 -0.184784 0.439788
upperback 5.87485 -0.797223 -0.704085
thorax -10.4472 -0.633104 -0.634981
lowerneck 4.69197 0.725259 2.21595
upperneck -19.2884 0.823145 -0.486214
head -6.62113 0.110373 -0.565302
rclavicle -1.80583e-014 -3.26877e-014
rhumerus -27.2819 5.49037 -90.081
rradius 40.0374
rwrist -6.83027
rhand -20.7425 -7.53234
rfingers 7.12502
rthumb 5.62294 -37.4377
lclavicle -1.80583e-014 -3.26877e-014
lhumerus -31.4192 -2.62212 86.179
lradius 37.0959
lwrist 25.1743
lhand -19.0421 10.2326
lfingers 7.12502
lthumb 7.26453 40.0879
rfemur -52.8214 0.058796 26.0395
rtibia 59.7878
rfoot -28.2413 -14.4727
rtoes 6.15423
lfemur -67.4934 8.34205 -23.5261
ltibia 42.2218
lfoot 13.2684 0.758305
ltoes -4.33921
206
root -28.6435 16.1247 -6.82138 269.167 -88.1073 -247.4
lowerback 32.9745 -0.208995 0.404105
upperback 5.8964 -0.838187 -0.686882
thorax -10.4225 -0.650976 -0.582202
lowerneck 4.70165 0.69877 2.20641
upperneck -19.2252 0.79805 -0.430566
head -6.60336 0.0962548 -0.544087
rclavicle -1.25483e-014 -2.61029e-014
rhumerus -27.245 5.43818 -89.9826
rradius 39.9274
rwrist -6.77996
rhand -20.7097 -7.54435
rfingers 7.12502
rthumb 5.65468 -37.4489
lclavicle -1.25483e-014 -2.61029e-014
lhumerus -31.393 -2.73841 86.2509
lradius 36.9177
lwrist 25.0858
lhand -18.9326 10.3269
lfingers 7.12502
lthumb 7.37021 40.1786
rfemur -53.1428 -0.162069 26.1106
rtibia 59.9703
rfoot -28.0065 -14.384
rtoes 6.22494
lfemur -68.5199 8.59414 -23.81
ltibia 45.4772
lfoot 11.8736 -0.0623119
ltoes -5.63521
207
root -28.564 16.1166 -6.84646 273.482 -88.031 -251.804
lowerback 32.9673 -0.219794 0.344207
upperback 5.9062 -0.869966 -0.673314
thorax -10.4084 -0.663675 -0.523827
lowerneck 4.70191 0.67402 2.18987
upperneck -19.1846 0.773544 -0.372819
head -6.59119 0.0819611 -0.521063
rclavicle 1.11816e-015 -1.89715e-014
rhumerus -27.2261 5.3817 -89.8784
rradius 39.8129
rwrist -6.72169
rhand -20.6929 -7.54597
rfingers 7.12502
rthumb 5.67081 -37.4501
lclavicle 1.11816e-015 -1.89715e-014
lhumerus -31.3668 -2.83918 86.3223
lradius 36.7481
lwrist 25.0508
lhand -18.8707 10.3926
lfingers 7.12502
lthumb 7.42999 40.2421
rfemur -53.4529 -0.361776 26.1541
rtibia 60.0795
rfoot -27.7186 -14.2902
rtoes 6.23833
lfemur -69.452 8.82805 -24.0736
ltibia 48.6346
lfoot 10.5068 -0.845862
ltoes -7.08794
208
root -28.485 16.1116 -6.87006 276.959 -87.9344 -255.344
lowerback 32.964 -0.22293 0.277704
upperback 5.9035 -0.894322 -0.666781
thorax -10.4096 -0.672482 -0.47212
lowerneck 4.69574 0.649063 2.16745
upperneck -19.1718 0.748235 -0.306617
head -6.58686 0.0661097 -0.494293
rclavicle -1.94064e-014 -1.54555e-014
rhumerus -27.2284 5.29734 -89.7702
rradius 39.7009
rwrist -6.65344
rhand -20.6726 -7.53861
rfingers 7.12502
rthumb 5.69045 -37.4422
lclavicle -1.94064e-014 -1.54555e-014
lhumerus -31.3461 -2.93548 86.3914
lradius 36.5899
lwrist 25.0515
lhand -18.8665 10.405
lfingers 7.12502
lthumb 7.43403 40.2544
rfemur -53.7603 -0.549206 26.178
rtibia 60.1401
rfoot -27.4086 -14.189
rtoes 6.2432
lfemur -70.2981 9.02842 -24.3067
ltibia 51.6993
lfoot 9.16196 -1.49474
ltoes -8.53728
209
root -28.4045 16.1231 -6.89394 279.758 -87.8296 -258.181
lowerback 32.9636 -0.219157 0.213953
upperback 5.89015 -0.909004 -0.66605
thorax -10.4239 -0.67663 -0.43164
lowerneck 4.68428 0.624767 2.14888
upperneck -19.1932 0.722117 -0.244452
head -6.59248 0.048864 -0.469403
rclavicle -2.50469e-014 -2.41523e-014
rhumerus -27.2516 5.18698 -89.66
rradius 39.5962
rwrist -6.58809
rhand -20.6819 -7.51979
rfingers 7.12502
rthumb 5.6815 -37.4236
lclavicle -2.50469e-014 -2.41523e-014
lhumerus -31.3251 -3.04671 86.4607
lradius 36.4312
lwrist 25.0397
lhand -18.9642 10.3264
lfingers 7.12502
lthumb 7.33975 40.1791
rfemur -54.016 -0.725818 26.1932
rtibia 60.0887
rfoot -27.0622 -14.0945
rtoes 6.21956
lfemur -70.9862 9.19244 -24.4954
ltibia 54.5833
lfoot 7.84361 -1.90617
ltoes -9.64253
210
root -28.3267 16.125 -6.91541 282.268 -87.7316 -260.707
lowerback 32.9692 -0.216079 0.173203
upperback 5.86645 -0.916633 -0.670175
thorax -10.4522 -0.677843 -0.411216
lowerneck 4.67351 0.599757 2.13404
upperneck -19.2432 0.694773 -0.181022
head -6.60738 0.0298259 -0.444644
rclavicle -6.90777e-015 -1.9133e-014
rhumerus -27.2982 5.05057 -89.5529
rradius 39.5019
rwrist -6.52713
rhand -20.6912 -7.5068
rfingers 7.12502
rthumb 5.6725 -37.4109
lclavicle -6.90777e-015 -1.9133e-014
lhumerus -31.3123 -3.1719 86.525
lradius 36.2818
lwrist 25.0077
lhand -19.1371 10.1719
lfingers 7.12502
lthumb 7.17279 40.0303
rfemur -54.3104 -0.893396 26.2152
rtibia 60.04
rfoot -26.7078 -14.0049
rtoes 6.20757
lfemur -71.64 9.30745 -24.6307
ltibia 57.3752
lfoot 6.6256 -2.11315
ltoes -10.4041
211
root -28.2493 16.1297 -6.9359 284.618 -87.644 -263.049
lowerback 32.9698 -0.214523 0.156854
upperback 5.83573 -0.917396 -0.676142
thorax -10.4867 -0.67627 -0.408461
lowerneck 4.67417 0.576571 2.13057
upperneck -19.328 0.668183 -0.132096
head -6.6353 0.0106513 -0.426512
rclavicle 2.3059e-014 3.3048e-014
rhumerus -27.3565 4.89639 -89.4484
rradius 39.4055
rwrist -6.45258
rhand -20.7258 -7.48326
rfingers 7.12502
rthumb 5.63912 -37.3882
lclavicle 2.3059e-014 3.3048e-014
lhumerus -31.2978 -3.30328 86.5828
lradius 36.146
lwrist 24.9568
lhand -19.3513 9.97184
lfingers 7.12502
lthumb 6.96604 39.8372
rfemur -54.6028 -1.05014 26.2464
rtibia 59.9373
rfoot -26.335 -13.9222
rtoes 6.21893
lfemur -72.205 9.38057 -24.7152
ltibia 60.0097
lfoot 5.5224 -2.12279
ltoes -10.7467
212
root -28.1725 16.137 -6.95551 286.93 -87.5705 -265.324
lowerback 32.9554 -0.216429 0.166182
upperback 5.79985 -0.912869 -0.681441
thorax -10.5212 -0.672664 -0.420927
lowerneck 4.68029 0.55369 2.13388
upperneck -19.4296 0.641147 -0.0912264
head -6.66952 -0.00901192 -0.412051
rclavicle 1.89342e-014 3.52346e-014
rhumerus -27.4192 4.74319 -89.3494
rradius 39.3014
rwrist -6.37735
rhand -20.7824 -7.44975
rfingers 7.12502
rthumb 5.58449 -37.3562
lclavicle 1.89342e-014 3.52346e-014
lhumerus -31.2805 -3.43625 86.6328
lradius 36.0279
lwrist 24.8934
lhand -19.5807 9.76051
lfingers 7.12502
lthumb 6.74456 39.6331
rfemur -54.9042 -1.18947 26.2884
rtibia 59.8105
rfoot -25.9378 -13.8658
rtoes 6.16364
lfemur -72.6978 9.41613 -24.7513
ltibia 62.5116
lfoot 4.55164 -2.02077
ltoes -10.8917
